<?xml version="1.0" encoding="utf-8" ?><svg xmlns="http://www.w3.org/2000/svg" xmlns:xlink="http://www.w3.org/1999/xlink" width="796" height="211" viewBox="0 0 796 211"><path fill="#19222F" d="M0 0L796 0L796 211L0 211L0 0Z"/><path fill="#FE69B4" d="M164.035 38.663C171.908 37.9138 194.047 37.9781 200.789 41.8954C212.18 48.513 211.586 67.0555 196.658 70.7681C210.673 74.0994 215.655 85.3722 208.818 98.0141C200.741 108.481 188.437 107.032 176.63 107.026L157.81 107.001L157.805 38.8151L164.035 38.663Z"/><path fill="#19222F" d="M172.678 77.2705C180.486 77.1792 196.126 75.2142 196.651 86.3661C196.783 89.1805 195.543 91.1549 193.716 93.1455C187.924 96.7228 179.414 95.9164 172.644 95.8714C172.564 89.6713 172.576 83.4703 172.678 77.2705Z"/><path fill="#19222F" d="M172.606 49.9996C178.395 49.9012 186.441 49.0677 191.386 52.494C195.741 55.5111 194.335 60.4443 191.43 64.0652C186.435 67.7797 178.772 66.992 172.607 66.9607L172.606 49.9996Z"/><path fill="#FEA500" d="M630.039 38.6638C649.242 38.6736 681.515 33.9772 675.561 67.3836C674.519 73.2297 669.458 77.4482 664.456 80.3225C669.036 88.877 674.392 98.2478 678.558 106.908C673.196 107.147 667.008 107.037 661.584 107.058L648.992 82.6316L638.445 82.69C638.495 90.7954 638.481 98.9011 638.405 107.006C633.556 107.113 628.334 107.008 623.457 106.988L623.47 38.7326L630.039 38.6638Z"/><path fill="#19222F" d="M638.45 50.5434C645.912 50.45 659.318 48.7768 660.741 58.8373C661.3 62.7916 660.572 64.9085 658.249 68.0491C653.095 72.1238 645.056 71.1204 638.493 71.0621L638.45 50.5434Z"/><path fill="#00BFFE" d="M360.76 38.7679C365.515 38.6425 370.831 38.7627 375.629 38.7703L375.642 66.187C385.498 66.0847 395.519 66.1771 405.388 66.1802L405.381 38.7838C410.222 38.6856 415.326 38.7609 420.188 38.7589L420.163 85.0129C420.159 88.2185 420.533 105.743 419.729 106.895L418.697 107.02L405.424 107.049C405.277 97.6757 405.405 87.9289 405.401 78.5268L375.686 78.5057C375.403 87.6132 375.601 97.8763 375.593 107.07C370.775 106.981 365.635 107.08 360.792 107.093C360.3 84.9163 360.727 61.0934 360.76 38.7679Z"/><path fill="#9FE23E" d="M105.855 38.6081C110.724 38.8988 117.767 38.5054 123.192 38.6598C130.35 60.9437 139.311 84.5401 146.931 106.908C141.734 107.026 136.383 107.007 131.172 107.053C129.577 102.285 127.957 95.5984 126.048 91.138C125.064 90.4225 124.465 90.6847 123.015 90.6749C116.317 90.7131 109.62 90.6946 102.923 90.6197C101.243 96.1302 99.5157 101.626 97.7403 107.107C93.2196 106.821 86.6657 106.959 81.9918 106.909C82.9084 104.05 83.9523 101.116 84.9727 98.2839C92.1054 78.4879 98.5832 58.3439 105.855 38.6081Z"/><path fill="#19222F" d="M114.455 53.5456C115.108 54.35 121.676 76.5747 122.427 79.2344L114.853 79.2587L106.491 79.2277C109.078 70.6463 111.733 62.0854 114.455 53.5456Z"/><path fill="#1FB2AA" d="M250.491 38.6834C253.556 38.3587 257.563 38.661 260.719 38.8086C267.952 61.4007 277.188 84.3646 284.285 106.957L268.667 107.024C267.038 101.512 265.329 96.0241 263.539 90.5621L253.22 90.5816L240.411 90.5815C238.696 95.1225 236.726 102.224 235.226 107.032C230.015 107.034 224.804 107.006 219.593 106.948C226.526 85 235.744 60.6995 243.296 38.6959C245.668 38.7846 248.113 38.7163 250.491 38.6834Z"/><path fill="#19222F" d="M251.732 53.8352C252.882 54.4695 259.214 76.4031 260.112 79.3481L253.328 79.322L243.861 79.3631L251.732 53.8352Z"/><path fill="#1FB2AA" d="M578.498 38.6839C581.633 38.3632 585.687 38.655 588.907 38.7946C590.583 44.5725 593.966 53.3647 596.025 59.2598C601.626 75.1241 607.146 91.0172 612.583 106.938L596.978 107.084C595.278 101.571 593.548 96.0676 591.788 90.5739L581.647 90.584L568.671 90.5401C566.899 95.3934 565.085 101.953 563.535 107.002L547.816 107.02C550.206 99.2775 553.496 90.5103 556.21 82.7352L571.597 38.7341C573.868 38.7732 576.222 38.7118 578.498 38.6839Z"/><path fill="#19222F" d="M580.365 53.4754C583.095 61.2699 585.879 71.2871 588.327 79.3373L580.773 79.3202L572.11 79.3448C574.039 73.0492 578.016 58.7999 580.365 53.4754Z"/><path fill="#FEA500" d="M315.903 37.8318C325.53 36.5421 338.009 39.0487 343.461 47.7768C345.83 51.5686 346.219 54.5636 346.803 58.8301C342.761 59.0916 336.883 58.9405 332.69 58.944C330.849 51.5912 325.705 49.8268 318.621 49.9109C314.208 49.9632 308.472 53.3942 309.149 58.1339C310.25 65.8462 325.512 65.8707 331.307 67.9895C335.303 69.4504 338.384 69.9501 341.781 72.7534C349.505 78.5517 349.796 91.8324 343.98 99.0808C339.183 105.06 332.356 107.098 325.005 107.98C314.068 108.4 301.507 107.623 295.287 96.8193C293.448 93.6257 293.077 90.6055 292.502 87.0425C297.104 86.9404 301.928 86.9874 306.547 86.9712C309.776 95.0086 314.898 96.0414 323.148 95.7799C327.228 95.6506 333.726 91.9856 332.921 87.3587C331.464 78.9891 317.433 79.5761 311.143 77.2202C306.234 75.8197 298.401 72.6271 296.225 67.4872C288.99 50.4008 301.09 39.8208 315.903 37.8318Z"/><path fill="#9FE23E" d="M435.445 38.7498C449.716 38.344 466.652 38.5808 481.02 38.743C481.074 42.7836 481.011 46.9387 480.998 50.989L450.441 51.0294L450.452 66.5332C460.06 66.4746 469.668 66.498 479.275 66.6032L479.258 78.4427L450.457 78.4261C450.337 83.6944 450.449 89.3724 450.457 94.6718C460.645 94.6036 470.833 94.6165 481.02 94.7107C481.078 98.7509 481.01 102.916 480.995 106.966C465.814 107.032 450.634 107.021 435.453 106.932C435.16 84.4393 435.444 61.2966 435.445 38.7498Z"/><path fill="#FE69B4" d="M495.25 38.8153C500.065 38.695 505.225 38.7861 510.071 38.7973L510.102 94.7295L539.734 94.7798C539.781 98.7836 539.707 102.95 539.691 106.967L495.292 106.977C495.044 84.384 495.248 61.4355 495.25 38.8153Z"/><path fill="#00BFFE" d="M689.812 38.7533L704.646 38.771C704.636 61.3581 704.932 84.544 704.577 107.079C699.866 106.958 694.597 107.083 689.845 107.096C689.341 85.1053 689.718 60.8332 689.812 38.7533Z"/><path fill="#9FA5B1" d="M488.235 142.318C505.617 140.71 511.593 154.714 505.465 169.959C503.916 173.814 499.695 176.069 495.802 177.214C479.085 180.329 472.277 163.628 478.315 150.089C480.21 145.842 483.964 143.669 488.235 142.318Z"/><path fill="#19222F" d="M489.42 146.176C506.2 144.333 508.547 168.446 494.516 173.448C478.311 175.786 475.194 151.095 489.42 146.176Z"/><path fill="#9FA5B1" d="M290.068 142.315C294.096 141.995 297.317 141.788 301.159 143.724C310.169 148.251 311.428 161.593 307.307 169.798C305.202 173.99 301.92 175.896 297.648 177.195C274.858 181.389 270.675 148.125 290.068 142.315Z"/><path fill="#19222F" d="M291.177 146.171C307.752 144.278 310.416 168.096 296.362 173.438C280.39 175.938 276.589 151.456 291.177 146.171Z"/><path fill="#9FA5B1" d="M319.061 142.591C325.643 142.388 336.001 141.646 341.125 145.828C348.993 152.249 348.187 165.337 342.465 172.74C336.172 178.31 327.201 177.085 319.067 177.027L319.061 142.591Z"/><path fill="#19222F" d="M323.15 146.367C327.59 146.173 334.653 145.891 338.142 148.883C344.274 154.142 343.728 164.098 339.036 170.026C334.413 173.964 328.929 173.304 323.151 173.24C323.051 164.325 323.138 155.292 323.15 146.367Z"/><path fill="#9FA5B1" d="M246.04 142.591C253.596 142.45 267.597 140.43 269.501 150.181C270.662 156.131 268.069 160.2 262.818 162.543C265.548 167.303 268.223 172.094 270.843 176.915C268.745 177.028 266.609 177.753 265.349 175.896C262.983 171.709 260.651 167.503 258.353 163.278L250.182 163.31L250.177 176.994L246.029 177.004L246.04 142.591Z"/><path fill="#19222F" d="M250.28 146.297C254.539 146.141 259.705 145.817 263.364 148.397C266.897 150.888 265.673 154.892 263.386 157.839C259.864 160.171 254.415 159.64 250.177 159.584C250.157 155.214 250.065 150.647 250.28 146.297Z"/><path fill="#9FA5B1" d="M214.873 142.279C220.98 142.462 229.654 141.43 234.214 145.849C238.369 149.877 238 157.218 233.971 161.206C230.733 164.412 227.549 164.451 223.349 164.476L218.022 164.46L218.011 176.986L213.831 177.016L213.813 155.214C213.81 151.592 213.73 147.757 213.893 144.138C213.952 142.826 214.033 142.963 214.873 142.279Z"/><path fill="#19222F" d="M218.077 146.252C222.2 146.207 226.643 145.875 230.236 148.292C234.326 151.044 233.114 155.46 230.556 158.825C226.898 161.192 222.26 160.781 218.008 160.762C217.96 155.925 217.983 151.088 218.077 146.252Z"/><path fill="#9FA5B1" d="M517.002 142.599C517.655 142.569 520.587 142.485 520.734 142.654C525.578 148.218 536.53 164.618 540.123 169.812C540.101 165.51 539.363 144.944 541.142 142.685C541.713 142.543 543.8 142.472 543.796 143.108C543.736 151.516 545.437 169.369 543.982 177.098C540.559 177.216 540.43 177.313 538.364 174.48C536.665 172.153 535.02 169.767 533.376 167.399L521.196 149.82C520.926 158.38 521.137 168.348 521.133 177.003L516.998 177.005L517.002 142.599Z"/><path fill="#9FA5B1" d="M566.061 141.991C568.227 142.101 570.221 142.261 572.236 143.151C575.104 144.418 579.267 148.377 577.702 151.828C576.571 152.818 577.08 152.617 575.668 152.741C573.113 151.786 572.294 145.601 566.631 145.965C563.582 146.161 557.793 147.678 558.49 151.76C559.598 158.258 572.437 157.015 576.356 161.412C577.79 162.971 578.975 164.168 579.027 166.495C579.242 175.089 573.158 177.323 565.937 177.639C564.131 177.545 561.981 177.34 560.309 176.615C557.459 175.38 552.204 171.267 553.759 167.733C557.474 165.173 557.685 169.166 559.426 171.1C564.757 177.025 580.751 171.506 572.314 163.925C568.734 160.707 554.597 161.374 554.039 153.092C553.926 145.174 559.586 142.511 566.061 141.991Z"/><path fill="#9FA5B1" d="M404.736 142.316C414.663 141.448 419.408 143.847 422.642 153.464C421.43 153.596 419.677 153.634 418.415 153.701C415.798 148.564 412.514 144.75 406.303 146.196C391.963 149.534 394.227 176.711 411.695 173.249C416.208 170.906 414.815 170.788 417.952 166.962C418.528 166.26 419.769 165.402 420.789 165.363C421.185 165.57 421.616 165.823 421.647 166.319C422.296 176.61 408.357 179.948 401.079 175.917C391.892 170.829 390.907 158.282 394.969 149.811C396.966 145.646 400.589 143.578 404.736 142.316Z"/><path fill="#9FA5B1" d="M356.318 142.578C357.653 142.524 358.363 142.551 359.692 142.674C363.506 146.634 352.756 181.229 375.018 172.52C383.231 169.307 375.869 144.652 381.22 141.927C383.502 142.748 383.197 143.128 383.309 145.233C383.225 153.448 385.191 168.589 379.688 174.175C373.535 180.421 358.004 178.192 356.742 168.105C355.706 159.83 356.251 150.731 356.318 142.578Z"/><path fill="#9FA5B1" d="M427.872 142.556C431.243 142.539 452.397 141.88 453.847 143.279C454.155 144.443 454.205 144.685 453.78 145.804C452.46 146.703 445.262 146.336 443.049 146.338L443.027 166.119L443.04 176.997L438.938 177.019L438.951 146.349C435.437 146.252 431.125 147.161 428.46 145.803C427.571 144.571 427.885 144.4 427.872 142.556Z"/><path fill="#9FA5B1" d="M462.567 142.544C463.887 142.509 465.607 142.36 466.606 143.138C466.807 144.969 466.835 146.664 466.817 148.502C466.728 157.98 466.966 167.529 466.698 176.999L462.532 177.013L462.567 142.544Z"/></svg>